<svg xmlns="http://www.w3.org/2000/svg" viewBox="0 0 734 734"><defs><style>.a{fill:none;stroke:#2e3192;stroke-width:16px;}.a,.c{stroke-miterlimit:10;}.b,.c{fill:red;}.c{stroke:#fff;stroke-width:9px;}</style></defs><ellipse class="a" cx="367" cy="367" rx="120.5" ry="359"/><ellipse class="a" cx="367" cy="367" rx="359" ry="120.5"/><ellipse class="a" cx="929.45" cy="518.68" rx="359" ry="120.5" transform="translate(-659.03 657.14) rotate(-45)"/><ellipse class="a" cx="929.45" cy="518.68" rx="120.5" ry="359" transform="translate(-659.03 657.14) rotate(-45)"/><polygon class="b" points="444 344.5 387.5 344.5 387.5 288 346.5 288 346.5 344.5 290 344.5 290 385.5 346.5 385.5 346.5 442 387.5 442 387.5 385.5 444 385.5 444 344.5"/><circle class="c" cx="108" cy="523.5" r="20.5"/><circle class="c" cx="72.5" cy="299" r="20.5"/><circle class="c" cx="204.5" cy="107" r="20.5"/><circle class="c" cx="443.5" cy="87" r="20.5"/><circle class="c" cx="615.5" cy="226" r="20.5"/><circle class="c" cx="656.5" cy="437" r="20.5"/><circle class="c" cx="520.5" cy="620" r="20.5"/><circle class="c" cx="294.5" cy="653" r="20.5"/></svg>